<svg width="60" height="22" viewBox="0 0 60 22" fill="none" xmlns="http://www.w3.org/2000/svg">
<mask id="path-1-outside-1_720_263" maskUnits="userSpaceOnUse" x="0" y="-0.367676" width="60" height="22" fill="black">
<rect fill="white" y="-0.367676" width="60" height="22"/>
<path d="M20.9981 13.0656L22.8119 15.1468L24.6862 13.0794H26.1879V13.7182L23.8391 16.3175L26.1879 19.0966V13.0794H30.4273C31.2291 13.0794 32.4048 13.4504 32.4048 15.1141C32.4048 17.448 30.8578 17.4757 30.0107 17.4757H27.8091V19.7354H24.6711L22.754 17.5209L20.7904 19.719H14.5509V13.0643H20.9981V13.0656ZM40.2052 13.0656H45.5523V14.5004H41.8415V15.7466H45.449V17.0091H41.8415V18.327H45.5523V19.7203H40.2052V13.0656ZM34.8153 19.7367H33.1789V13.0807H37.4322C38.2365 13.0807 39.3958 13.4378 39.3958 14.8626C39.3958 15.6674 39.1579 16.2596 38.2654 16.7061C39.0383 16.7953 39.3366 17.3009 39.3366 18.3697L39.3958 19.7367H37.8035L37.7594 18.5169C37.7456 17.9535 37.5215 17.3889 36.9576 17.3889H34.8153V19.7367ZM55.821 15.6598C57.8338 15.7604 57.9999 16.7652 57.9999 17.834C57.9999 19.0815 56.974 19.7505 55.9029 19.7505H52.4678V18.3257H55.1451C55.5995 18.3257 56.2754 18.3257 56.2754 17.6844C56.2754 17.3801 56.1559 17.1877 55.6725 17.1349C55.2969 17.0984 54.9204 17.0724 54.5434 17.0569C52.7271 17.0091 52.3054 16.1075 52.3054 15.0084C52.3054 13.761 53.1827 13.0782 54.2539 13.0782H57.689V14.5054H55.1753C54.6038 14.513 53.9858 14.4375 53.9858 15.0851C53.9858 15.4926 54.2917 15.5743 54.6768 15.6133C54.8103 15.6145 55.7027 15.6598 55.821 15.6598ZM49.6935 15.6598C51.705 15.7604 51.8724 16.7652 51.8724 17.834C51.8724 19.0815 50.8453 19.7505 49.7753 19.7505H46.339V18.3257H49.0163C49.4695 18.3257 50.1479 18.3257 50.1479 17.6844C50.1479 17.3801 50.0283 17.1877 49.545 17.1349C49.3285 17.1047 48.533 17.0594 48.4159 17.0569C46.5995 17.0091 46.1779 16.1075 46.1779 15.0084C46.1779 13.761 47.0552 13.0782 48.1251 13.0782H51.5615V14.5054H49.0478C48.4751 14.513 47.8583 14.4375 47.8583 15.0851C47.8583 15.4926 48.1629 15.5743 48.5506 15.6133C48.6827 15.6145 49.5752 15.6598 49.6935 15.6598ZM28.1364 8.29585H26.5V1.63987H30.7533C31.5564 1.63987 32.7182 1.997 32.7182 3.42176C32.7182 4.2253 32.4803 4.8201 31.5879 5.26526C32.3607 5.35455 32.659 5.86006 32.659 6.92894L32.7182 8.29585H31.1272L31.0818 7.07733C31.0667 6.51271 30.8452 5.94935 30.2788 5.94935H28.1377V8.29585H28.1364ZM33.5515 8.29585H35.1866V1.63232H33.5515V8.29585ZM20.2164 1.63987H25.5623V3.07343H21.8553V4.32213H25.4603V5.58593H21.8553V6.90002H25.5623V8.29585H20.2164V1.63987ZM8.27732 8.29585H11.5714V3.35637L13.7566 8.29585H15.2444L17.4812 3.43811V8.29585H19.1163V1.63987H16.5069L14.4992 6.10528L12.4991 1.63987H9.93381V8.05064L7.07774 1.63987H4.91523L2 8.29585H3.72573L4.36391 6.81074H7.62781L8.27732 8.29585ZM44.5994 6.81451H41.3368L40.6973 8.29963H38.5398C36.726 8.29963 35.9217 6.78056 35.9607 4.93831C36.0161 2.20449 37.6336 1.6361 38.3775 1.6361H40.5123V3.08475H39.5015C38.4152 3.08475 37.5681 3.19792 37.5681 4.75723V5.24011C37.5757 6.41337 38.1912 6.69127 38.5852 6.77301C38.6821 6.79565 38.8608 6.80445 38.9263 6.79942L39.6337 6.79565L41.8868 1.63987H44.0519L46.84 7.88717V1.6361H49.2555L52.0146 6.24486V1.6361H53.6497V8.29963H51.4192L48.475 3.42553V8.29963H45.2477L44.5994 6.81451Z"/>
</mask>
<path d="M20.9981 13.0656H19.4981C19.4981 13.4279 19.6292 13.778 19.8673 14.0511L20.9981 13.0656ZM22.8119 15.1468L21.6811 16.1323C21.9626 16.4553 22.3688 16.6425 22.7973 16.6467C23.2257 16.6509 23.6355 16.4717 23.9232 16.1542L22.8119 15.1468ZM24.6862 13.0794V11.5794C24.2629 11.5794 23.8593 11.7583 23.5749 12.0719L24.6862 13.0794ZM26.1879 13.7182L27.3008 14.7239C27.5499 14.4482 27.6879 14.0898 27.6879 13.7182H26.1879ZM23.8391 16.3175L22.7261 15.3118C22.2228 15.8689 22.2088 16.7123 22.6934 17.2857L23.8391 16.3175ZM26.1879 19.0966L25.0422 20.0648C25.4487 20.5457 26.1121 20.7216 26.7034 20.5052C27.2947 20.2888 27.6879 19.7262 27.6879 19.0966H26.1879ZM27.8091 17.4757V15.9757C26.9807 15.9757 26.3091 16.6472 26.3091 17.4757H27.8091ZM27.8091 19.7354V21.2354C28.6376 21.2354 29.3091 20.5638 29.3091 19.7354H27.8091ZM24.6711 19.7354L23.537 20.7172C23.8219 21.0463 24.2358 21.2354 24.6711 21.2354V19.7354ZM22.754 17.5209L23.8881 16.5392C23.6059 16.2131 23.197 16.0243 22.7657 16.021C22.3345 16.0176 21.9227 16.2 21.6354 16.5216L22.754 17.5209ZM20.7904 19.719V21.219C21.2176 21.219 21.6245 21.0369 21.9091 20.7184L20.7904 19.719ZM14.5509 19.719H13.0509C13.0509 20.5475 13.7224 21.219 14.5509 21.219V19.719ZM14.5509 13.0643V11.5643C13.7224 11.5643 13.0509 12.2359 13.0509 13.0643H14.5509ZM20.9981 13.0643H22.4981C22.4981 12.2359 21.8265 11.5643 20.9981 11.5643V13.0643ZM40.2052 13.0656V11.5656C39.3767 11.5656 38.7052 12.2372 38.7052 13.0656H40.2052ZM45.5523 13.0656H47.0523C47.0523 12.2372 46.3807 11.5656 45.5523 11.5656V13.0656ZM45.5523 14.5004V16.0004C46.3807 16.0004 47.0523 15.3288 47.0523 14.5004H45.5523ZM41.8415 14.5004V13.0004C41.0131 13.0004 40.3415 13.672 40.3415 14.5004H41.8415ZM41.8415 15.7466H40.3415C40.3415 16.575 41.0131 17.2466 41.8415 17.2466V15.7466ZM45.449 15.7466H46.949C46.949 14.9182 46.2775 14.2466 45.449 14.2466V15.7466ZM45.449 17.0091V18.5091C46.2775 18.5091 46.949 17.8375 46.949 17.0091H45.449ZM41.8415 17.0091V15.5091C41.0131 15.5091 40.3415 16.1807 40.3415 17.0091H41.8415ZM41.8415 18.327H40.3415C40.3415 19.1554 41.0131 19.827 41.8415 19.827V18.327ZM45.5523 18.327H47.0523C47.0523 17.4986 46.3807 16.827 45.5523 16.827V18.327ZM45.5523 19.7203V21.2203C46.3807 21.2203 47.0523 20.5487 47.0523 19.7203H45.5523ZM40.2052 19.7203H38.7052C38.7052 20.5487 39.3767 21.2203 40.2052 21.2203V19.7203ZM34.8153 19.7367V21.2367C35.6437 21.2367 36.3153 20.5651 36.3153 19.7367H34.8153ZM33.1789 19.7367H31.6789C31.6789 20.5651 32.3505 21.2367 33.1789 21.2367V19.7367ZM33.1789 13.0807V11.5807C32.3505 11.5807 31.6789 12.2522 31.6789 13.0807H33.1789ZM38.2654 16.7061L37.5944 15.3645C37.001 15.6614 36.6731 16.3129 36.7882 16.9663C36.9033 17.6198 37.4341 18.12 38.0933 18.1962L38.2654 16.7061ZM39.3366 18.3697H37.8366C37.8366 18.3914 37.8371 18.413 37.838 18.4346L39.3366 18.3697ZM39.3958 19.7367V21.2367C39.8049 21.2367 40.1962 21.0696 40.4791 20.7741C40.7621 20.4787 40.9121 20.0805 40.8944 19.6718L39.3958 19.7367ZM37.8035 19.7367L36.3045 19.7908C36.3336 20.5976 36.9961 21.2367 37.8035 21.2367V19.7367ZM37.7594 18.5169L36.2599 18.5537C36.26 18.5595 36.2602 18.5653 36.2604 18.571L37.7594 18.5169ZM34.8153 17.3889V15.8889C33.9868 15.8889 33.3153 16.5605 33.3153 17.3889H34.8153ZM55.821 15.6598L55.8959 14.1617C55.871 14.1604 55.846 14.1598 55.821 14.1598L55.821 15.6598ZM52.4678 19.7505H50.9678C50.9678 20.5789 51.6393 21.2505 52.4678 21.2505V19.7505ZM52.4678 18.3257V16.8257C51.6393 16.8257 50.9678 17.4973 50.9678 18.3257H52.4678ZM55.6725 17.1349L55.8354 15.6437C55.8295 15.6431 55.8235 15.6425 55.8175 15.6419L55.6725 17.1349ZM54.5434 17.0569L54.605 15.5582C54.5977 15.5579 54.5903 15.5576 54.5829 15.5574L54.5434 17.0569ZM57.689 13.0782H59.189C59.189 12.2497 58.5174 11.5782 57.689 11.5782V13.0782ZM57.689 14.5054V16.0054C58.5174 16.0054 59.189 15.3339 59.189 14.5054H57.689ZM55.1753 14.5054V13.0054C55.1687 13.0054 55.1621 13.0055 55.1555 13.0056L55.1753 14.5054ZM54.6768 15.6133L54.5258 17.1057C54.5713 17.1103 54.617 17.1128 54.6627 17.1132L54.6768 15.6133ZM49.6935 15.6598L49.7684 14.1617C49.7435 14.1604 49.7185 14.1598 49.6935 14.1598V15.6598ZM46.339 19.7505H44.839C44.839 20.5789 45.5106 21.2505 46.339 21.2505V19.7505ZM46.339 18.3257V16.8257C45.5106 16.8257 44.839 17.4973 44.839 18.3257H46.339ZM49.545 17.1349L49.3379 18.6205C49.3526 18.6226 49.3673 18.6244 49.382 18.626L49.545 17.1349ZM48.4159 17.0569L48.3764 18.5564L48.3837 18.5566L48.4159 17.0569ZM51.5615 13.0782H53.0615C53.0615 12.2497 52.3899 11.5782 51.5615 11.5782V13.0782ZM51.5615 14.5054V16.0054C52.3899 16.0054 53.0615 15.3339 53.0615 14.5054H51.5615ZM49.0478 14.5054V13.0054C49.0412 13.0054 49.0346 13.0055 49.028 13.0056L49.0478 14.5054ZM48.5506 15.6133L48.4005 17.1058C48.4456 17.1103 48.4909 17.1128 48.5363 17.1132L48.5506 15.6133ZM26.5 8.29585H25C25 9.12428 25.6716 9.79585 26.5 9.79585V8.29585ZM26.5 1.63987V0.13987C25.6716 0.13987 25 0.811443 25 1.63987L26.5 1.63987ZM31.5879 5.26526L30.9183 3.92298C30.3243 4.2193 29.9956 4.87086 30.1105 5.52471C30.2253 6.17856 30.7562 6.67917 31.4157 6.75535L31.5879 5.26526ZM32.659 6.92894H31.159C31.159 6.95057 31.1595 6.9722 31.1604 6.9938L32.659 6.92894ZM32.7182 8.29585V9.79585C33.1273 9.79585 33.5186 9.62878 33.8015 9.33333C34.0845 9.03788 34.2345 8.63969 34.2168 8.231L32.7182 8.29585ZM31.1272 8.29585L29.6282 8.3516C29.6582 9.15778 30.3204 9.79585 31.1272 9.79585V8.29585ZM31.0818 7.07733L29.5824 7.11744C29.5825 7.12265 29.5827 7.12786 29.5829 7.13307L31.0818 7.07733ZM28.1377 5.94935V4.44935C27.3092 4.44935 26.6377 5.12092 26.6377 5.94935H28.1377ZM28.1377 8.29585V9.79585C28.9661 9.79585 29.6377 9.12428 29.6377 8.29585H28.1377ZM33.5515 8.29585H32.0515C32.0515 9.12428 32.7231 9.79585 33.5515 9.79585V8.29585ZM35.1866 8.29585V9.79585C36.015 9.79585 36.6866 9.12428 36.6866 8.29585H35.1866ZM35.1866 1.63232H36.6866C36.6866 0.803897 36.015 0.132324 35.1866 0.132324V1.63232ZM33.5515 1.63232V0.132324C32.7231 0.132324 32.0515 0.803897 32.0515 1.63232L33.5515 1.63232ZM20.2164 1.63987V0.13987C19.388 0.13987 18.7164 0.811443 18.7164 1.63987L20.2164 1.63987ZM25.5623 1.63987H27.0623C27.0623 0.811443 26.3907 0.13987 25.5623 0.13987V1.63987ZM25.5623 3.07343V4.57343C26.3907 4.57343 27.0623 3.90185 27.0623 3.07343L25.5623 3.07343ZM21.8553 3.07343V1.57343C21.0269 1.57343 20.3553 2.245 20.3553 3.07343L21.8553 3.07343ZM21.8553 4.32213H20.3553C20.3553 5.15056 21.0269 5.82213 21.8553 5.82213V4.32213ZM25.4603 4.32213H26.9603C26.9603 3.4937 26.2888 2.82213 25.4603 2.82213V4.32213ZM25.4603 5.58593V7.08593C26.2888 7.08593 26.9603 6.41436 26.9603 5.58593H25.4603ZM21.8553 5.58593V4.08593C21.0269 4.08593 20.3553 4.7575 20.3553 5.58593H21.8553ZM21.8553 6.90002H20.3553C20.3553 7.72845 21.0269 8.40002 21.8553 8.40002V6.90002ZM25.5623 6.90002H27.0623C27.0623 6.0716 26.3907 5.40002 25.5623 5.40002V6.90002ZM25.5623 8.29585V9.79585C26.3907 9.79585 27.0623 9.12428 27.0623 8.29585H25.5623ZM20.2164 8.29585H18.7164C18.7164 9.12428 19.388 9.79585 20.2164 9.79585V8.29585ZM8.27732 8.29585L6.903 8.8969C7.14183 9.44298 7.6813 9.79585 8.27732 9.79585V8.29585ZM11.5714 8.29585V9.79585C12.3999 9.79585 13.0714 9.12428 13.0714 8.29585H11.5714ZM11.5714 3.35637L12.9432 2.74952C12.6564 2.10122 11.9549 1.74221 11.2613 1.88878C10.5677 2.03534 10.0714 2.64746 10.0714 3.35637H11.5714ZM13.7566 8.29585L12.3848 8.9027C12.625 9.44567 13.1629 9.79585 13.7566 9.79585V8.29585ZM15.2444 8.29585V9.79585C15.83 9.79585 16.362 9.45511 16.6069 8.92322L15.2444 8.29585ZM17.4812 3.43811H18.9812C18.9812 2.73342 18.4907 2.12375 17.8023 1.97288C17.114 1.82202 16.4134 2.17065 16.1187 2.81074L17.4812 3.43811ZM17.4812 8.29585H15.9812C15.9812 9.12428 16.6528 9.79585 17.4812 9.79585V8.29585ZM19.1163 8.29585V9.79585C19.9447 9.79585 20.6163 9.12428 20.6163 8.29585H19.1163ZM19.1163 1.63987H20.6163C20.6163 0.811443 19.9447 0.13987 19.1163 0.13987V1.63987ZM16.5069 1.63987V0.13987C15.9165 0.13987 15.381 0.486252 15.1389 1.02477L16.5069 1.63987ZM14.4992 6.10528L13.1303 6.71845C13.3718 7.25766 13.9074 7.60486 14.4982 7.60528C15.089 7.60569 15.6251 7.25924 15.8673 6.72038L14.4992 6.10528ZM12.4991 1.63987L13.8681 1.0267C13.6264 0.48714 13.0903 0.13987 12.4991 0.13987V1.63987ZM9.93381 1.63987V0.13987C9.10539 0.13987 8.43381 0.811443 8.43381 1.63987L9.93381 1.63987ZM9.93381 8.05064L8.56364 8.66107C8.85183 9.30795 9.55318 9.66514 10.2459 9.51783C10.9385 9.37051 11.4338 8.75881 11.4338 8.05064H9.93381ZM7.07774 1.63987L8.44791 1.02944C8.20688 0.488407 7.67004 0.13987 7.07774 0.13987V1.63987ZM4.91523 1.63987V0.13987C4.31951 0.13987 3.78024 0.492401 3.54124 1.03808L4.91523 1.63987ZM2 8.29585L0.62601 7.69406C0.422876 8.15785 0.467427 8.69282 0.744475 9.11662C1.02152 9.54042 1.49368 9.79585 2 9.79585L2 8.29585ZM3.72573 8.29585V9.79585C4.32524 9.79585 4.86718 9.43888 5.10387 8.88807L3.72573 8.29585ZM4.36391 6.81074V5.31074C3.76439 5.31074 3.22245 5.66771 2.98576 6.21853L4.36391 6.81074ZM7.62781 6.81074L9.00212 6.20969C8.7633 5.66361 8.22383 5.31074 7.62781 5.31074V6.81074ZM44.5994 6.81451L45.9741 6.21444C45.7356 5.66784 45.1958 5.31451 44.5994 5.31451V6.81451ZM41.3368 6.81451V5.31451C40.7376 5.31451 40.196 5.67103 39.959 6.22131L41.3368 6.81451ZM40.6973 8.29963V9.79963C41.2965 9.79963 41.8381 9.44311 42.075 8.89282L40.6973 8.29963ZM35.9607 4.93831L37.4604 4.97007L37.4604 4.96869L35.9607 4.93831ZM40.5123 1.6361H42.0123C42.0123 0.80767 41.3407 0.136097 40.5123 0.136097V1.6361ZM40.5123 3.08475V4.58475C41.3407 4.58475 42.0123 3.91317 42.0123 3.08475L40.5123 3.08475ZM37.5681 5.24011L36.0681 5.24011L36.0681 5.24977L37.5681 5.24011ZM38.5852 6.77301L38.9263 5.31232C38.9142 5.30949 38.902 5.30681 38.8899 5.30429L38.5852 6.77301ZM38.9263 6.79942L38.9183 5.29944C38.8826 5.29963 38.8469 5.3011 38.8114 5.30383L38.9263 6.79942ZM39.6337 6.79565L39.6417 8.29563C40.2349 8.29247 40.7706 7.93994 41.0082 7.39632L39.6337 6.79565ZM41.8868 1.63987V0.13987C41.2907 0.13987 40.7511 0.492921 40.5123 1.0392L41.8868 1.63987ZM44.0519 1.63987L45.4216 1.02855C45.1804 0.487997 44.6438 0.13987 44.0519 0.13987V1.63987ZM46.84 7.88717L45.4702 8.49848C45.7587 9.14501 46.46 9.50175 47.1525 9.35425C47.8449 9.20674 48.34 8.59515 48.34 7.88717L46.84 7.88717ZM46.84 1.6361V0.136097C46.0115 0.136097 45.34 0.80767 45.34 1.6361L46.84 1.6361ZM49.2555 1.6361L50.5425 0.865609C50.2716 0.413089 49.7829 0.136097 49.2555 0.136097V1.6361ZM52.0146 6.24486L50.7276 7.01535C51.0741 7.59406 51.7642 7.87036 52.4143 7.69063C53.0644 7.5109 53.5146 6.91935 53.5146 6.24486L52.0146 6.24486ZM52.0146 1.6361V0.136097C51.1862 0.136097 50.5146 0.80767 50.5146 1.6361L52.0146 1.6361ZM53.6497 1.6361H55.1497C55.1497 0.80767 54.4781 0.136097 53.6497 0.136097V1.6361ZM53.6497 8.29963V9.79963C54.4781 9.79963 55.1497 9.12805 55.1497 8.29963H53.6497ZM51.4192 8.29963L50.1353 9.07519C50.4069 9.52483 50.8939 9.79963 51.4192 9.79963V8.29963ZM48.475 3.42553L49.759 2.64997C49.4108 2.07357 48.7212 1.79984 48.0725 1.98055C47.4238 2.16127 46.975 2.75214 46.975 3.42553L48.475 3.42553ZM48.475 8.29963V9.79963C49.3035 9.79963 49.975 9.12805 49.975 8.29963H48.475ZM45.2477 8.29963L43.8729 8.8997C44.1115 9.4463 44.6512 9.79963 45.2477 9.79963V8.29963ZM19.8673 14.0511L21.6811 16.1323L23.9427 14.1612L22.1289 12.08L19.8673 14.0511ZM23.9232 16.1542L25.7975 14.0869L23.5749 12.0719L21.7007 14.1393L23.9232 16.1542ZM24.6862 14.5794H26.1879V11.5794H24.6862V14.5794ZM24.6879 13.0794V13.7182H27.6879V13.0794H24.6879ZM25.0749 12.7125L22.7261 15.3118L24.952 17.3232L27.3008 14.7239L25.0749 12.7125ZM22.6934 17.2857L25.0422 20.0648L27.3335 18.1283L24.9847 15.3492L22.6934 17.2857ZM27.6879 19.0966V13.0794H24.6879V19.0966H27.6879ZM26.1879 14.5794H30.4273V11.5794H26.1879V14.5794ZM30.4273 14.5794C30.5169 14.5794 30.6056 14.5903 30.6801 14.6106C30.7535 14.6306 30.7914 14.6536 30.8069 14.6654C30.8155 14.672 30.8277 14.6815 30.8441 14.7175C30.8631 14.7589 30.9048 14.8754 30.9048 15.1141H33.9048C33.9048 13.8859 33.446 12.9055 32.6265 12.2803C31.8796 11.7105 31.0197 11.5794 30.4273 11.5794V14.5794ZM30.9048 15.1141C30.9048 15.5378 30.8339 15.7426 30.7967 15.8203C30.7679 15.8805 30.7517 15.885 30.7478 15.8874C30.7257 15.9007 30.6623 15.9304 30.5227 15.951C30.379 15.9723 30.2224 15.9757 30.0107 15.9757V18.9757C30.3895 18.9757 31.4034 18.9981 32.303 18.4528C33.3671 17.8077 33.9048 16.6435 33.9048 15.1141H30.9048ZM30.0107 15.9757H27.8091V18.9757H30.0107V15.9757ZM26.3091 17.4757V19.7354H29.3091V17.4757H26.3091ZM27.8091 18.2354H24.6711V21.2354H27.8091V18.2354ZM25.8052 18.7536L23.8881 16.5392L21.62 18.5027L23.537 20.7172L25.8052 18.7536ZM21.6354 16.5216L19.6718 18.7197L21.9091 20.7184L23.8727 18.5202L21.6354 16.5216ZM20.7904 18.219H14.5509V21.219H20.7904V18.219ZM16.0509 19.719V13.0643H13.0509V19.719H16.0509ZM14.5509 14.5643H20.9981V11.5643H14.5509V14.5643ZM19.4981 13.0643V13.0656H22.4981V13.0643H19.4981ZM40.2052 14.5656H45.5523V11.5656H40.2052V14.5656ZM44.0523 13.0656V14.5004H47.0523V13.0656H44.0523ZM45.5523 13.0004H41.8415V16.0004H45.5523V13.0004ZM40.3415 14.5004V15.7466H43.3415V14.5004H40.3415ZM41.8415 17.2466H45.449V14.2466H41.8415V17.2466ZM43.949 15.7466V17.0091H46.949V15.7466H43.949ZM45.449 15.5091H41.8415V18.5091H45.449V15.5091ZM40.3415 17.0091V18.327H43.3415V17.0091H40.3415ZM41.8415 19.827H45.5523V16.827H41.8415V19.827ZM44.0523 18.327V19.7203H47.0523V18.327H44.0523ZM45.5523 18.2203H40.2052V21.2203H45.5523V18.2203ZM41.7052 19.7203V13.0656H38.7052V19.7203H41.7052ZM34.8153 18.2367H33.1789V21.2367H34.8153V18.2367ZM34.6789 19.7367V13.0807H31.6789V19.7367H34.6789ZM33.1789 14.5807H37.4322V11.5807H33.1789V14.5807ZM37.4322 14.5807C37.527 14.5807 37.6259 14.5917 37.7127 14.6135C37.8001 14.6355 37.8484 14.6615 37.868 14.6749C37.8764 14.6807 37.8777 14.6828 37.8754 14.6803C37.8744 14.6792 37.8732 14.6777 37.872 14.676C37.8709 14.6743 37.8703 14.6733 37.8705 14.6736C37.8706 14.6738 37.8718 14.6762 37.8738 14.6816C37.8757 14.6869 37.8787 14.6961 37.8818 14.7099C37.8881 14.7373 37.8958 14.7864 37.8958 14.8626H40.8958C40.8958 13.6707 40.3744 12.7554 39.5632 12.1998C38.8381 11.7031 38.0139 11.5807 37.4322 11.5807V14.5807ZM37.8958 14.8626C37.8958 14.9927 37.8859 15.0745 37.8756 15.1242C37.8707 15.148 37.866 15.163 37.863 15.1713C37.8601 15.1793 37.8581 15.1829 37.8575 15.1841C37.8569 15.1852 37.8556 15.1874 37.852 15.1918C37.8484 15.1963 37.8401 15.2058 37.8241 15.2199C37.7918 15.2485 37.7237 15.2998 37.5944 15.3645L38.9365 18.0476C39.5782 17.7266 40.1199 17.282 40.4731 16.6533C40.8179 16.0395 40.8958 15.4031 40.8958 14.8626H37.8958ZM38.0933 18.1962C38.1399 18.2015 38.1014 18.2044 38.0251 18.1616C37.9865 18.14 37.946 18.1109 37.9077 18.0743C37.8696 18.0379 37.8416 18.0016 37.8225 17.9713C37.786 17.9135 37.7931 17.896 37.8074 17.9672C37.8219 18.0394 37.8366 18.1664 37.8366 18.3697H40.8366C40.8366 17.7495 40.7607 17.0057 40.3592 16.3698C39.8895 15.6258 39.1587 15.2993 38.4376 15.216L38.0933 18.1962ZM37.838 18.4346L37.8972 19.8015L40.8944 19.6718L40.8352 18.3049L37.838 18.4346ZM39.3958 18.2367H37.8035V21.2367H39.3958V18.2367ZM39.3025 19.6825L39.2585 18.4627L36.2604 18.571L36.3045 19.7908L39.3025 19.6825ZM39.259 18.48C39.2483 18.0471 39.159 17.478 38.8476 16.9641C38.494 16.3807 37.8479 15.8889 36.9576 15.8889V18.8889C36.836 18.8889 36.6816 18.8548 36.5339 18.7641C36.3944 18.6785 36.3173 18.5773 36.282 18.5191C36.2488 18.4642 36.2449 18.436 36.2491 18.4535C36.2528 18.4686 36.2586 18.503 36.2599 18.5537L39.259 18.48ZM36.9576 15.8889H34.8153V18.8889H36.9576V15.8889ZM33.3153 17.3889V19.7367H36.3153V17.3889H33.3153ZM55.7462 17.1579C56.5365 17.1975 56.5454 17.3925 56.4581 17.2743C56.4355 17.2436 56.4511 17.2448 56.4692 17.3391C56.4891 17.4435 56.4999 17.5934 56.4999 17.834H59.4999C59.4999 17.303 59.4849 16.3238 58.8724 15.4934C58.1989 14.5804 57.1183 14.2228 55.8959 14.1617L55.7462 17.1579ZM56.4999 17.834C56.4999 17.9357 56.4801 17.9905 56.4675 18.0171C56.4543 18.0451 56.4336 18.0739 56.3965 18.1046C56.3135 18.1734 56.1424 18.2505 55.9029 18.2505V21.2505C56.7345 21.2505 57.6119 20.9931 58.3096 20.4155C59.0389 19.8117 59.4999 18.9115 59.4999 17.834H56.4999ZM55.9029 18.2505H52.4678V21.2505H55.9029V18.2505ZM53.9678 19.7505V18.3257H50.9678V19.7505H53.9678ZM52.4678 19.8257H55.1451V16.8257H52.4678V19.8257ZM55.1451 19.8257C55.307 19.8257 55.8669 19.8422 56.3826 19.6591C56.6749 19.5553 57.0483 19.358 57.3447 18.9787C57.6538 18.5832 57.7754 18.1225 57.7754 17.6844H54.7754C54.7754 17.5669 54.8126 17.3468 54.9808 17.1316C55.1362 16.9327 55.3123 16.8556 55.3788 16.832C55.4395 16.8105 55.4576 16.8155 55.3957 16.8203C55.3364 16.825 55.2668 16.8257 55.1451 16.8257V19.8257ZM57.7754 17.6844C57.7754 17.3586 57.7141 16.766 57.2299 16.2688C56.7809 15.8078 56.2119 15.6849 55.8354 15.6437L55.5096 18.626C55.6164 18.6377 55.349 18.6374 55.0806 18.3618C54.777 18.0501 54.7754 17.7059 54.7754 17.6844H57.7754ZM55.8175 15.6419C55.4142 15.6027 55.0099 15.5748 54.605 15.5582L54.4818 18.5556C54.831 18.57 55.1797 18.5941 55.5275 18.6279L55.8175 15.6419ZM54.5829 15.5574C53.8969 15.5394 53.8096 15.3695 53.8573 15.4225C53.8881 15.4566 53.8054 15.4044 53.8054 15.0084H50.8054C50.8054 15.7115 50.9335 16.6596 51.6292 17.4313C52.3419 18.2218 53.3736 18.5267 54.504 18.5564L54.5829 15.5574ZM53.8054 15.0084C53.8054 14.8738 53.8286 14.7943 53.8454 14.7536C53.8617 14.7143 53.8795 14.6924 53.8963 14.6768C53.9286 14.647 54.0316 14.5782 54.2539 14.5782V11.5782C53.405 11.5782 52.5338 11.8507 51.8596 12.4742C51.1676 13.114 50.8054 14.0117 50.8054 15.0084H53.8054ZM54.2539 14.5782H57.689V11.5782H54.2539V14.5782ZM56.189 13.0782V14.5054H59.189V13.0782H56.189ZM57.689 13.0054H55.1753V16.0054H57.689V13.0054ZM55.1555 13.0056C55.1109 13.0061 54.8339 13.0049 54.7038 13.0088C54.5301 13.0139 54.2539 13.0293 53.9632 13.1104C53.6592 13.1952 53.2432 13.3788 52.9171 13.789C52.5852 14.2065 52.4858 14.6828 52.4858 15.0851H55.4858C55.4858 15.1636 55.4637 15.4065 55.2655 15.6558C55.0732 15.8977 54.8474 15.9783 54.7693 16.0001C54.7045 16.0182 54.69 16.0105 54.7929 16.0075C54.8371 16.0061 54.8883 16.0059 54.9585 16.0059C55.022 16.006 55.1098 16.0064 55.1951 16.0053L55.1555 13.0056ZM52.4858 15.0851C52.4858 15.3749 52.5409 15.7088 52.7138 16.0356C52.8909 16.3704 53.1445 16.6081 53.4041 16.7669C53.8506 17.0401 54.3394 17.0868 54.5258 17.1057L54.8279 14.1209C54.7565 14.1137 54.7398 14.1091 54.7503 14.1116C54.7589 14.1136 54.85 14.1346 54.9697 14.2078C55.1047 14.2904 55.2577 14.4288 55.3654 14.6325C55.469 14.8282 55.4858 14.9991 55.4858 15.0851H52.4858ZM54.6627 17.1132C54.6567 17.1132 54.6665 17.1133 54.705 17.1147C54.738 17.1159 54.7808 17.1176 54.8317 17.1197C54.9335 17.1241 55.0589 17.1297 55.1871 17.1355C55.3138 17.1412 55.4433 17.147 55.5487 17.1514C55.6357 17.155 55.7523 17.1598 55.821 17.1598V14.1598C55.8306 14.1598 55.7913 14.1589 55.6735 14.154C55.5742 14.1499 55.45 14.1443 55.3221 14.1385C55.0929 14.1282 54.7929 14.1143 54.691 14.1134L54.6627 17.1132ZM49.6186 17.1579C50.408 17.1974 50.4173 17.3923 50.3304 17.2746C50.3079 17.2441 50.3235 17.2454 50.3416 17.3397C50.3615 17.4439 50.3724 17.5937 50.3724 17.834H53.3724C53.3724 17.3021 53.3568 16.3233 52.7441 15.4931C52.0706 14.5806 50.9905 14.2228 49.7684 14.1617L49.6186 17.1579ZM50.3724 17.834C50.3724 17.9355 50.3526 17.9901 50.34 18.0167C50.3268 18.0446 50.306 18.0736 50.2687 18.1045C50.1853 18.1735 50.014 18.2505 49.7753 18.2505V21.2505C50.6066 21.2505 51.4838 20.993 52.1814 20.4157C52.9106 19.8123 53.3724 18.9121 53.3724 17.834H50.3724ZM49.7753 18.2505H46.339V21.2505H49.7753V18.2505ZM47.839 19.7505V18.3257H44.839V19.7505H47.839ZM46.339 19.8257H49.0163V16.8257H46.339V19.8257ZM49.0163 19.8257C49.1781 19.8257 49.7374 19.8421 50.253 19.6594C50.5449 19.556 50.9185 19.3593 51.2154 18.9805C51.5253 18.5851 51.6479 18.1238 51.6479 17.6844H48.6479C48.6479 17.5656 48.6857 17.3449 48.8542 17.1299C49.0098 16.9314 49.1855 16.8549 49.2511 16.8317C49.3111 16.8104 49.3287 16.8154 49.2666 16.8203C49.2072 16.825 49.1377 16.8257 49.0163 16.8257V19.8257ZM51.6479 17.6844C51.6479 17.3586 51.5865 16.766 51.1023 16.2688C50.6533 15.8078 50.0844 15.6849 49.7079 15.6437L49.382 18.626C49.4889 18.6377 49.2214 18.6374 48.9531 18.3618C48.6495 18.0501 48.6479 17.7059 48.6479 17.6844H51.6479ZM49.7521 15.6492C49.4501 15.6071 48.5871 15.5602 48.4481 15.5573L48.3837 18.5566C48.3781 18.5564 48.387 18.5566 48.4201 18.5582C48.4486 18.5595 48.4862 18.5614 48.5308 18.5638C48.62 18.5685 48.7321 18.5751 48.8473 18.5825C48.9631 18.5899 49.078 18.5979 49.1744 18.6056C49.2225 18.6094 49.263 18.6129 49.2947 18.616C49.3296 18.6194 49.3416 18.621 49.3379 18.6205L49.7521 15.6492ZM48.4553 15.5574C47.7694 15.5394 47.6821 15.3695 47.7298 15.4225C47.7606 15.4566 47.6779 15.4044 47.6779 15.0084H44.6779C44.6779 15.7115 44.806 16.6596 45.5017 17.4313C46.2143 18.2218 47.246 18.5267 48.3764 18.5564L48.4553 15.5574ZM47.6779 15.0084C47.6779 14.8738 47.7011 14.7942 47.7179 14.7535C47.7342 14.7142 47.752 14.6922 47.7689 14.6766C47.8011 14.6468 47.9039 14.5782 48.1251 14.5782V11.5782C47.2765 11.5782 46.4056 11.851 45.7316 12.4744C45.0401 13.1142 44.6779 14.0117 44.6779 15.0084H47.6779ZM48.1251 14.5782H51.5615V11.5782H48.1251V14.5782ZM50.0615 13.0782V14.5054H53.0615V13.0782H50.0615ZM51.5615 13.0054H49.0478V16.0054H51.5615V13.0054ZM49.028 13.0056C48.9828 13.0061 48.7061 13.0049 48.5758 13.0088C48.4021 13.0139 48.1258 13.0293 47.8349 13.1105C47.5306 13.1954 47.1146 13.3793 46.7888 13.7898C46.4572 14.2075 46.3583 14.6835 46.3583 15.0851H49.3583C49.3583 15.163 49.3364 15.4056 49.1384 15.655C48.9461 15.8972 48.7201 15.9781 48.6416 16C48.5765 16.0182 48.5618 16.0105 48.6648 16.0075C48.7091 16.0061 48.7603 16.0059 48.8306 16.0059C48.8942 16.006 48.9821 16.0064 49.0675 16.0053L49.028 13.0056ZM46.3583 15.0851C46.3583 15.3739 46.4129 15.7075 46.5854 16.0344C46.7624 16.3695 47.016 16.6077 47.2762 16.7669C47.7234 17.0405 48.2133 17.0869 48.4005 17.1058L48.7006 14.1208C48.6286 14.1136 48.6115 14.1089 48.6218 14.1113C48.6303 14.1133 48.7217 14.1343 48.8418 14.2078C48.9775 14.2908 49.1307 14.4297 49.2384 14.6338C49.3417 14.8295 49.3583 15.0001 49.3583 15.0851H46.3583ZM48.5363 17.1132C48.53 17.1132 48.5396 17.1133 48.5782 17.1147C48.6111 17.1159 48.6538 17.1176 48.7046 17.1197C48.8063 17.1241 48.9316 17.1297 49.0596 17.1355C49.1863 17.1412 49.3157 17.147 49.4212 17.1514C49.5081 17.155 49.6248 17.1598 49.6935 17.1598V14.1598C49.7031 14.1598 49.6638 14.1589 49.546 14.154C49.4467 14.1499 49.3226 14.1443 49.1948 14.1385C48.9658 14.1282 48.6661 14.1143 48.5648 14.1134L48.5363 17.1132ZM28.1364 6.79585H26.5V9.79585H28.1364V6.79585ZM28 8.29585V1.63987H25V8.29585H28ZM26.5 3.13987H30.7533V0.13987H26.5V3.13987ZM30.7533 3.13987C30.8476 3.13987 30.9465 3.15084 31.0336 3.17271C31.1212 3.19474 31.17 3.22089 31.19 3.23455C31.1986 3.24048 31.2001 3.24276 31.1979 3.24034C31.1969 3.23928 31.1957 3.23782 31.1946 3.23617C31.1934 3.2345 31.1929 3.23353 31.193 3.23373C31.1931 3.23393 31.1943 3.23633 31.1963 3.24161C31.1982 3.24693 31.2012 3.25606 31.2043 3.26978C31.2105 3.29697 31.2182 3.34579 31.2182 3.42176H34.2182C34.2182 2.22858 33.6951 1.31349 32.8838 0.758514C32.1587 0.262409 31.3347 0.13987 30.7533 0.13987V3.13987ZM31.2182 3.42176C31.2182 3.55143 31.2083 3.6332 31.198 3.68316C31.1886 3.72897 31.1797 3.74365 31.1796 3.74386C31.1789 3.74505 31.1775 3.74739 31.174 3.75171C31.1704 3.75618 31.1621 3.7656 31.1464 3.77956C31.1144 3.80793 31.0469 3.85886 30.9183 3.92298L32.2574 6.60754C32.9009 6.28655 33.4428 5.841 33.7958 5.21195C34.1402 4.59823 34.2182 3.96186 34.2182 3.42176H31.2182ZM31.4157 6.75535C31.4623 6.76073 31.4238 6.76362 31.3475 6.72082C31.3089 6.69921 31.2684 6.67008 31.2301 6.6335C31.192 6.59708 31.164 6.5608 31.1449 6.53053C31.1084 6.47265 31.1155 6.45518 31.1298 6.52638C31.1443 6.59861 31.159 6.72559 31.159 6.92894H34.159C34.159 6.3087 34.0831 5.56493 33.6816 4.92898C33.2119 4.18498 32.4811 3.85848 31.76 3.77517L31.4157 6.75535ZM31.1604 6.9938L31.2196 8.36071L34.2168 8.231L34.1576 6.86408L31.1604 6.9938ZM32.7182 6.79585H31.1272V9.79585H32.7182V6.79585ZM32.6261 8.24011L32.5808 7.02159L29.5829 7.13307L29.6282 8.3516L32.6261 8.24011ZM32.5813 7.03722C32.5698 6.60789 32.4816 6.03876 32.17 5.5244C31.8147 4.93799 31.1674 4.44935 30.2788 4.44935V7.44935C30.1597 7.44935 30.006 7.41618 29.8578 7.32542C29.7176 7.23959 29.6398 7.13777 29.6041 7.07881C29.5705 7.02337 29.5667 6.99483 29.5711 7.01307C29.5749 7.02889 29.581 7.06445 29.5824 7.11744L32.5813 7.03722ZM30.2788 4.44935H28.1377V7.44935H30.2788V4.44935ZM26.6377 5.94935V8.29585H29.6377V5.94935H26.6377ZM28.1377 6.79585H28.1364V9.79585H28.1377V6.79585ZM33.5515 9.79585H35.1866V6.79585H33.5515V9.79585ZM36.6866 8.29585V1.63232H33.6866V8.29585H36.6866ZM35.1866 0.132324H33.5515V3.13232H35.1866V0.132324ZM32.0515 1.63232V8.29585H35.0515V1.63232H32.0515ZM20.2164 3.13987H25.5623V0.13987H20.2164V3.13987ZM24.0623 1.63987V3.07343H27.0623V1.63987H24.0623ZM25.5623 1.57343H21.8553V4.57343H25.5623V1.57343ZM20.3553 3.07343V4.32213H23.3553V3.07343H20.3553ZM21.8553 5.82213H25.4603V2.82213H21.8553V5.82213ZM23.9603 4.32213V5.58593H26.9603V4.32213H23.9603ZM25.4603 4.08593H21.8553V7.08593H25.4603V4.08593ZM20.3553 5.58593V6.90002H23.3553V5.58593H20.3553ZM21.8553 8.40002H25.5623V5.40002H21.8553V8.40002ZM24.0623 6.90002V8.29585H27.0623V6.90002H24.0623ZM25.5623 6.79585H20.2164V9.79585H25.5623V6.79585ZM21.7164 8.29585V1.63987H18.7164V8.29585H21.7164ZM8.27732 9.79585H11.5714V6.79585H8.27732V9.79585ZM13.0714 8.29585V3.35637H10.0714V8.29585H13.0714ZM10.1997 3.96322L12.3848 8.9027L15.1284 7.689L12.9432 2.74952L10.1997 3.96322ZM13.7566 9.79585H15.2444V6.79585H13.7566V9.79585ZM16.6069 8.92322L18.8437 4.06548L16.1187 2.81074L13.8819 7.66848L16.6069 8.92322ZM15.9812 3.43811V8.29585H18.9812V3.43811H15.9812ZM17.4812 9.79585H19.1163V6.79585H17.4812V9.79585ZM20.6163 8.29585V1.63987H17.6163V8.29585H20.6163ZM19.1163 0.13987H16.5069V3.13987H19.1163V0.13987ZM15.1389 1.02477L13.1312 5.49017L15.8673 6.72038L17.875 2.25497L15.1389 1.02477ZM15.8682 5.4921L13.8681 1.0267L11.1302 2.25304L13.1303 6.71845L15.8682 5.4921ZM12.4991 0.13987H9.93381V3.13987H12.4991V0.13987ZM8.43381 1.63987V8.05064H11.4338V1.63987H8.43381ZM11.304 7.44021L8.44791 1.02944L5.70757 2.2503L8.56364 8.66107L11.304 7.44021ZM7.07774 0.13987H4.91523V3.13987H7.07774V0.13987ZM3.54124 1.03808L0.62601 7.69406L3.37399 8.89764L6.28922 2.24166L3.54124 1.03808ZM2 9.79585H3.72573V6.79585H2V9.79585ZM5.10387 8.88807L5.74205 7.40295L2.98576 6.21853L2.34758 7.70364L5.10387 8.88807ZM4.36391 8.31074H7.62781V5.31074H4.36391V8.31074ZM6.25349 7.41179L6.903 8.8969L9.65163 7.69481L9.00212 6.20969L6.25349 7.41179ZM44.5994 5.31451H41.3368V8.31451H44.5994V5.31451ZM39.959 6.22131L39.3196 7.70643L42.075 8.89282L42.7145 7.40771L39.959 6.22131ZM40.6973 6.79963H38.5398V9.79963H40.6973V6.79963ZM38.5398 6.79963C38.1167 6.79963 37.9263 6.6544 37.7882 6.45519C37.6032 6.18838 37.445 5.69419 37.4604 4.97007L34.461 4.90655C34.4374 6.02468 34.6618 7.21114 35.3227 8.16444C36.0305 9.18532 37.1492 9.79963 38.5398 9.79963V6.79963ZM37.4604 4.96869C37.4819 3.90746 37.7927 3.49472 37.9494 3.34441C38.0412 3.25631 38.1354 3.20387 38.2185 3.17286C38.2607 3.15711 38.2986 3.14745 38.3291 3.14194C38.3605 3.13627 38.3778 3.1361 38.3775 3.1361V0.136097C37.674 0.136097 36.6937 0.391685 35.8724 1.17964C35.0205 1.99697 34.4949 3.23534 34.461 4.90793L37.4604 4.96869ZM38.3775 3.1361H40.5123V0.136097H38.3775V3.1361ZM39.0123 1.6361V3.08475H42.0123V1.6361H39.0123ZM40.5123 1.58475H39.5015V4.58475H40.5123V1.58475ZM39.5015 1.58475C39.0189 1.58475 38.0888 1.57838 37.3169 2.0741C36.3612 2.68784 36.0681 3.72317 36.0681 4.75723H39.0681C39.0681 4.49132 39.106 4.40573 39.1008 4.4181C39.0963 4.42881 39.0808 4.46091 39.0474 4.50108C39.0136 4.54185 38.9746 4.57487 38.938 4.59839C38.8714 4.64117 38.8529 4.62688 38.9646 4.61006C39.0796 4.59274 39.2422 4.58475 39.5015 4.58475V1.58475ZM36.0681 4.75723V5.24011H39.0681V4.75723H36.0681ZM36.0681 5.24977C36.0736 6.10333 36.3074 6.8543 36.8177 7.4203C37.3148 7.97168 37.9119 8.16527 38.2805 8.24174L38.8899 5.30429C38.8788 5.302 38.8946 5.30394 38.9249 5.3189C38.9591 5.33575 39.0046 5.36579 39.0458 5.41146C39.0883 5.45859 39.0991 5.4924 39.096 5.48333C39.0912 5.46915 39.0691 5.39464 39.0681 5.23046L36.0681 5.24977ZM38.244 8.23371C38.4114 8.27278 38.5757 8.28704 38.6662 8.29316C38.7533 8.29906 38.8996 8.30589 39.0412 8.29501L38.8114 5.30383C38.8422 5.30146 38.8637 5.30101 38.8708 5.30088C38.8798 5.30073 38.8847 5.30082 38.8847 5.30082C38.8852 5.30083 38.8836 5.3008 38.8803 5.30066C38.877 5.30052 38.8731 5.3003 38.8689 5.30002C38.8593 5.29937 38.8546 5.29878 38.8564 5.299C38.8576 5.29915 38.8634 5.29989 38.8731 5.30152C38.8821 5.30303 38.9007 5.30634 38.9263 5.31232L38.244 8.23371ZM38.9343 8.2994L39.6417 8.29563L39.6257 5.29567L38.9183 5.29944L38.9343 8.2994ZM41.0082 7.39632L43.2613 2.24054L40.5123 1.0392L38.2592 6.19498L41.0082 7.39632ZM41.8868 3.13987H44.0519V0.13987H41.8868V3.13987ZM42.6821 2.25119L45.4702 8.49848L48.2097 7.27585L45.4216 1.02855L42.6821 2.25119ZM48.34 7.88717V1.6361H45.34V7.88717H48.34ZM46.84 3.1361H49.2555V0.136097H46.84V3.1361ZM47.9685 2.40658L50.7276 7.01535L53.3016 5.47437L50.5425 0.865609L47.9685 2.40658ZM53.5146 6.24486V1.6361H50.5146V6.24486H53.5146ZM52.0146 3.1361H53.6497V0.136097H52.0146V3.1361ZM52.1497 1.6361V8.29963H55.1497V1.6361H52.1497ZM53.6497 6.79963H51.4192V9.79963H53.6497V6.79963ZM52.7032 7.52407L49.759 2.64997L47.1911 4.20109L50.1353 9.07519L52.7032 7.52407ZM46.975 3.42553V8.29963H49.975V3.42553H46.975ZM48.475 6.79963H45.2477V9.79963H48.475V6.79963ZM46.6224 7.69956L45.9741 6.21444L43.2247 7.41458L43.8729 8.8997L46.6224 7.69956Z" fill="white" mask="url(#path-1-outside-1_720_263)"/>
<path d="M27.8104 16.1113H29.8483C30.5167 16.1113 30.7546 15.7239 30.7546 15.2788C30.7546 14.9518 30.5394 14.5155 29.8546 14.5155H27.8104V16.1113ZM19.898 14.5004H16.1885V15.7466H19.7935V17.0091H16.1885V18.327H19.9584L21.7584 16.3187L20.1661 14.5067L19.898 14.5004ZM34.8153 16.0232H36.8532C37.5216 16.0232 37.7595 15.7252 37.7595 15.2788C37.7595 14.9518 37.5442 14.5155 36.8595 14.5155H34.8153V16.0232ZM28.1364 4.58243H30.1743C30.844 4.58243 31.0806 4.28565 31.0806 3.83924C31.0806 3.51354 30.8654 3.07342 30.1806 3.07342H28.1364V4.58243ZM6.99596 5.37843H5.00464L5.98142 3.05078L6.99596 5.37843ZM42.9505 3.05455L41.9762 5.38094H43.9751L42.9505 3.05455Z" fill="white"/>
</svg>
